{
    "asset" : {
        "generator" : "Khronos glTF Blender I/O v1.1.45",
        "version" : "2.0"
    },
    "scene" : 0,
    "scenes" : [
        {
            "name" : "Scene",
            "nodes" : [
                0,
                1,
                2,
                3,
                4,
                5,
                6,
                7,
                8
            ]
        }
    ],
    "nodes" : [
        {
            "name" : "Light",
            "rotation" : [
                0.16907575726509094,
                0.7558803558349609,
                -0.27217137813568115,
                0.570947527885437
            ],
            "translation" : [
                4.076245307922363,
                5.903861999511719,
                -1.0054539442062378
            ]
        },
        {
            "name" : "Camera",
            "rotation" : [
                0.483536034822464,
                0.33687159419059753,
                -0.20870360732078552,
                0.7804827094078064
            ],
            "translation" : [
                7.358891487121582,
                4.958309173583984,
                6.925790786743164
            ]
        },
        {
            "mesh" : 0,
            "name" : "stick_oculus-touch-controller-left.007",
            "rotation" : [
                0.7071067690849304,
                0,
                0,
                0.7071067690849304
            ]
        },
        {
            "mesh" : 1,
            "name" : "body_oculus-touch-controller-left.006",
            "rotation" : [
                0.7071067690849304,
                0,
                0,
                0.7071067690849304
            ]
        },
        {
            "mesh" : 2,
            "name" : "buttonTrigger_oculus-touch-controller-left.005",
            "rotation" : [
                0.7071067690849304,
                0,
                0,
                0.7071067690849304
            ]
        },
        {
            "mesh" : 3,
            "name" : "buttonHand_oculus-touch-controller-left.004",
            "rotation" : [
                0.7071067690849304,
                0,
                0,
                0.7071067690849304
            ]
        },
        {
            "mesh" : 4,
            "name" : "buttonMenu_oculus-touch-controller-left.003",
            "rotation" : [
                0.7071067690849304,
                0,
                0,
                0.7071067690849304
            ]
        },
        {
            "mesh" : 5,
            "name" : "buttonX_oculus-touch-controller-left.002",
            "rotation" : [
                0.7071067690849304,
                0,
                0,
                0.7071067690849304
            ]
        },
        {
            "mesh" : 6,
            "name" : "buttonY_oculus-touch-controller-left.001",
            "rotation" : [
                0.7071067690849304,
                0,
                0,
                0.7071067690849304
            ]
        }
    ],
    "materials" : [
        {
            "doubleSided" : true,
            "emissiveFactor" : [
                0,
                0,
                0
            ],
            "name" : "stick",
            "pbrMetallicRoughness" : {
                "baseColorFactor" : [
                    0.800000011920929,
                    0.800000011920929,
                    0.800000011920929,
                    1
                ],
                "metallicFactor" : 0,
                "roughnessFactor" : 0.5
            }
        },
        {
            "doubleSided" : true,
            "emissiveFactor" : [
                0,
                0,
                0
            ],
            "name" : "body",
            "pbrMetallicRoughness" : {
                "baseColorFactor" : [
                    0.800000011920929,
                    0.800000011920929,
                    0.800000011920929,
                    1
                ],
                "metallicFactor" : 0,
                "roughnessFactor" : 0.5
            }
        },
        {
            "doubleSided" : true,
            "emissiveFactor" : [
                0,
                0,
                0
            ],
            "name" : "buttonTrigger",
            "pbrMetallicRoughness" : {
                "baseColorFactor" : [
                    0.800000011920929,
                    0.800000011920929,
                    0.800000011920929,
                    1
                ],
                "metallicFactor" : 0,
                "roughnessFactor" : 0.5
            }
        },
        {
            "doubleSided" : true,
            "emissiveFactor" : [
                0,
                0,
                0
            ],
            "name" : "buttonHand",
            "pbrMetallicRoughness" : {
                "baseColorFactor" : [
                    0.800000011920929,
                    0.800000011920929,
                    0.800000011920929,
                    1
                ],
                "metallicFactor" : 0,
                "roughnessFactor" : 0.5
            }
        },
        {
            "doubleSided" : true,
            "emissiveFactor" : [
                0,
                0,
                0
            ],
            "name" : "buttonMenu",
            "pbrMetallicRoughness" : {
                "baseColorFactor" : [
                    0.800000011920929,
                    0.800000011920929,
                    0.800000011920929,
                    1
                ],
                "metallicFactor" : 0,
                "roughnessFactor" : 0.5
            }
        },
        {
            "doubleSided" : true,
            "emissiveFactor" : [
                0,
                0,
                0
            ],
            "name" : "buttonX",
            "pbrMetallicRoughness" : {
                "baseColorFactor" : [
                    0.800000011920929,
                    0.800000011920929,
                    0.800000011920929,
                    1
                ],
                "metallicFactor" : 0,
                "roughnessFactor" : 0.5
            }
        },
        {
            "doubleSided" : true,
            "emissiveFactor" : [
                0,
                0,
                0
            ],
            "name" : "buttonY",
            "pbrMetallicRoughness" : {
                "baseColorFactor" : [
                    0.800000011920929,
                    0.800000011920929,
                    0.800000011920929,
                    1
                ],
                "metallicFactor" : 0,
                "roughnessFactor" : 0.5
            }
        }
    ],
    "meshes" : [
        {
            "name" : "stick_oculus-touch-controller-left.007",
            "primitives" : [
                {
                    "attributes" : {
                        "POSITION" : 0,
                        "NORMAL" : 1,
                        "TEXCOORD_0" : 2
                    },
                    "indices" : 3,
                    "material" : 0
                }
            ]
        },
        {
            "name" : "body_oculus-touch-controller-left.006",
            "primitives" : [
                {
                    "attributes" : {
                        "POSITION" : 4,
                        "NORMAL" : 5,
                        "TEXCOORD_0" : 6
                    },
                    "indices" : 7,
                    "material" : 1
                }
            ]
        },
        {
            "name" : "buttonTrigger_oculus-touch-controller-left.005",
            "primitives" : [
                {
                    "attributes" : {
                        "POSITION" : 8,
                        "NORMAL" : 9,
                        "TEXCOORD_0" : 10
                    },
                    "indices" : 11,
                    "material" : 2
                }
            ]
        },
        {
            "name" : "buttonHand_oculus-touch-controller-left.004",
            "primitives" : [
                {
                    "attributes" : {
                        "POSITION" : 12,
                        "NORMAL" : 13,
                        "TEXCOORD_0" : 14
                    },
                    "indices" : 15,
                    "material" : 3
                }
            ]
        },
        {
            "name" : "buttonMenu_oculus-touch-controller-left.003",
            "primitives" : [
                {
                    "attributes" : {
                        "POSITION" : 16,
                        "NORMAL" : 17,
                        "TEXCOORD_0" : 18
                    },
                    "indices" : 19,
                    "material" : 4
                }
            ]
        },
        {
            "name" : "buttonX_oculus-touch-controller-left.002",
            "primitives" : [
                {
                    "attributes" : {
                        "POSITION" : 20,
                        "NORMAL" : 21,
                        "TEXCOORD_0" : 22
                    },
                    "indices" : 23,
                    "material" : 5
                }
            ]
        },
        {
            "name" : "buttonY_oculus-touch-controller-left.001",
            "primitives" : [
                {
                    "attributes" : {
                        "POSITION" : 24,
                        "NORMAL" : 25,
                        "TEXCOORD_0" : 26
                    },
                    "indices" : 27,
                    "material" : 6
                }
            ]
        }
    ],
    "accessors" : [
        {
            "bufferView" : 0,
            "componentType" : 5126,
            "count" : 1108,
            "max" : [
                0.006045999936759472,
                0.05546100065112114,
                0.014821999706327915
            ],
            "min" : [
                -0.00902200024574995,
                0.037723999470472336,
                -0.002686999971047044
            ],
            "type" : "VEC3"
        },
        {
            "bufferView" : 1,
            "componentType" : 5126,
            "count" : 1108,
            "type" : "VEC3"
        },
        {
            "bufferView" : 2,
            "componentType" : 5126,
            "count" : 1108,
            "type" : "VEC2"
        },
        {
            "bufferView" : 3,
            "componentType" : 5123,
            "count" : 4224,
            "type" : "SCALAR"
        },
        {
            "bufferView" : 4,
            "componentType" : 5126,
            "count" : 5856,
            "max" : [
                0.044780001044273376,
                0.13857899606227875,
                0.08010700345039368
            ],
            "min" : [
                -0.06481499969959259,
                0.023972999304533005,
                -0.013945000246167183
            ],
            "type" : "VEC3"
        },
        {
            "bufferView" : 5,
            "componentType" : 5126,
            "count" : 5856,
            "type" : "VEC3"
        },
        {
            "bufferView" : 6,
            "componentType" : 5126,
            "count" : 5856,
            "type" : "VEC2"
        },
        {
            "bufferView" : 7,
            "componentType" : 5123,
            "count" : 26751,
            "type" : "SCALAR"
        },
        {
            "bufferView" : 8,
            "componentType" : 5126,
            "count" : 348,
            "max" : [
                0.019267000257968903,
                0.061404999345541,
                0.046112000942230225
            ],
            "min" : [
                -0.006725000217556953,
                0.03615900129079819,
                0.01989400014281273
            ],
            "type" : "VEC3"
        },
        {
            "bufferView" : 9,
            "componentType" : 5126,
            "count" : 348,
            "type" : "VEC3"
        },
        {
            "bufferView" : 10,
            "componentType" : 5126,
            "count" : 348,
            "type" : "VEC2"
        },
        {
            "bufferView" : 11,
            "componentType" : 5123,
            "count" : 1956,
            "type" : "SCALAR"
        },
        {
            "bufferView" : 12,
            "componentType" : 5126,
            "count" : 357,
            "max" : [
                0.013944000005722046,
                0.09984099864959717,
                0.0213019996881485
            ],
            "min" : [
                0.0008120000129565597,
                0.07577700167894363,
                -0.0033919999841600657
            ],
            "type" : "VEC3"
        },
        {
            "bufferView" : 13,
            "componentType" : 5126,
            "count" : 357,
            "type" : "VEC3"
        },
        {
            "bufferView" : 14,
            "componentType" : 5126,
            "count" : 357,
            "type" : "VEC2"
        },
        {
            "bufferView" : 15,
            "componentType" : 5123,
            "count" : 1950,
            "type" : "SCALAR"
        },
        {
            "bufferView" : 16,
            "componentType" : 5126,
            "count" : 289,
            "max" : [
                0.0009430000209249556,
                0.06856799870729446,
                0.0013330000219866633
            ],
            "min" : [
                -0.008314999751746655,
                0.05939500033855438,
                -0.007002000231295824
            ],
            "type" : "VEC3"
        },
        {
            "bufferView" : 17,
            "componentType" : 5126,
            "count" : 289,
            "type" : "VEC3"
        },
        {
            "bufferView" : 18,
            "componentType" : 5126,
            "count" : 289,
            "type" : "VEC2"
        },
        {
            "bufferView" : 19,
            "componentType" : 5123,
            "count" : 1056,
            "type" : "SCALAR"
        },
        {
            "bufferView" : 20,
            "componentType" : 5126,
            "count" : 289,
            "max" : [
                0.01605300046503544,
                0.06268200278282166,
                0.003911000210791826
            ],
            "min" : [
                0.006087000016123056,
                0.05384400114417076,
                -0.00381199992261827
            ],
            "type" : "VEC3"
        },
        {
            "bufferView" : 21,
            "componentType" : 5126,
            "count" : 289,
            "type" : "VEC3"
        },
        {
            "bufferView" : 22,
            "componentType" : 5126,
            "count" : 289,
            "type" : "VEC2"
        },
        {
            "bufferView" : 23,
            "componentType" : 5123,
            "count" : 1248,
            "type" : "SCALAR"
        },
        {
            "bufferView" : 24,
            "componentType" : 5126,
            "count" : 293,
            "max" : [
                0.022299999371170998,
                0.05221699923276901,
                0.012507000006735325
            ],
            "min" : [
                0.01233300007879734,
                0.04337900131940842,
                0.004784000106155872
            ],
            "type" : "VEC3"
        },
        {
            "bufferView" : 25,
            "componentType" : 5126,
            "count" : 293,
            "type" : "VEC3"
        },
        {
            "bufferView" : 26,
            "componentType" : 5126,
            "count" : 293,
            "type" : "VEC2"
        },
        {
            "bufferView" : 27,
            "componentType" : 5123,
            "count" : 1254,
            "type" : "SCALAR"
        }
    ],
    "bufferViews" : [
        {
            "buffer" : 0,
            "byteLength" : 13296,
            "byteOffset" : 0
        },
        {
            "buffer" : 0,
            "byteLength" : 13296,
            "byteOffset" : 13296
        },
        {
            "buffer" : 0,
            "byteLength" : 8864,
            "byteOffset" : 26592
        },
        {
            "buffer" : 0,
            "byteLength" : 8448,
            "byteOffset" : 35456
        },
        {
            "buffer" : 0,
            "byteLength" : 70272,
            "byteOffset" : 43904
        },
        {
            "buffer" : 0,
            "byteLength" : 70272,
            "byteOffset" : 114176
        },
        {
            "buffer" : 0,
            "byteLength" : 46848,
            "byteOffset" : 184448
        },
        {
            "buffer" : 0,
            "byteLength" : 53502,
            "byteOffset" : 231296
        },
        {
            "buffer" : 0,
            "byteLength" : 4176,
            "byteOffset" : 284800
        },
        {
            "buffer" : 0,
            "byteLength" : 4176,
            "byteOffset" : 288976
        },
        {
            "buffer" : 0,
            "byteLength" : 2784,
            "byteOffset" : 293152
        },
        {
            "buffer" : 0,
            "byteLength" : 3912,
            "byteOffset" : 295936
        },
        {
            "buffer" : 0,
            "byteLength" : 4284,
            "byteOffset" : 299848
        },
        {
            "buffer" : 0,
            "byteLength" : 4284,
            "byteOffset" : 304132
        },
        {
            "buffer" : 0,
            "byteLength" : 2856,
            "byteOffset" : 308416
        },
        {
            "buffer" : 0,
            "byteLength" : 3900,
            "byteOffset" : 311272
        },
        {
            "buffer" : 0,
            "byteLength" : 3468,
            "byteOffset" : 315172
        },
        {
            "buffer" : 0,
            "byteLength" : 3468,
            "byteOffset" : 318640
        },
        {
            "buffer" : 0,
            "byteLength" : 2312,
            "byteOffset" : 322108
        },
        {
            "buffer" : 0,
            "byteLength" : 2112,
            "byteOffset" : 324420
        },
        {
            "buffer" : 0,
            "byteLength" : 3468,
            "byteOffset" : 326532
        },
        {
            "buffer" : 0,
            "byteLength" : 3468,
            "byteOffset" : 330000
        },
        {
            "buffer" : 0,
            "byteLength" : 2312,
            "byteOffset" : 333468
        },
        {
            "buffer" : 0,
            "byteLength" : 2496,
            "byteOffset" : 335780
        },
        {
            "buffer" : 0,
            "byteLength" : 3516,
            "byteOffset" : 338276
        },
        {
            "buffer" : 0,
            "byteLength" : 3516,
            "byteOffset" : 341792
        },
        {
            "buffer" : 0,
            "byteLength" : 2344,
            "byteOffset" : 345308
        },
        {
            "buffer" : 0,
            "byteLength" : 2508,
            "byteOffset" : 347652
        }
    ],
    "buffers" : [
        {
            "byteLength" : 350160,
            "uri" : "scene.bin"
        }
    ]
}
