{
    "asset" : {
        "generator" : "Khronos glTF Blender I/O v1.1.45",
        "version" : "2.0"
    },
    "scene" : 0,
    "scenes" : [
        {
            "name" : "Scene",
            "nodes" : [
                0,
                1,
                2,
                3,
                4,
                5,
                6,
                7,
                8
            ]
        }
    ],
    "nodes" : [
        {
            "name" : "Light",
            "rotation" : [
                0.16907575726509094,
                0.7558803558349609,
                -0.27217137813568115,
                0.570947527885437
            ],
            "translation" : [
                4.076245307922363,
                5.903861999511719,
                -1.0054539442062378
            ]
        },
        {
            "name" : "Camera",
            "rotation" : [
                0.483536034822464,
                0.33687159419059753,
                -0.20870360732078552,
                0.7804827094078064
            ],
            "translation" : [
                7.358891487121582,
                4.958309173583984,
                6.925790786743164
            ]
        },
        {
            "mesh" : 0,
            "name" : "buttonTrigger_oculus-touch-controller-right.006",
            "rotation" : [
                0.7071067690849304,
                0,
                0,
                0.7071067690849304
            ]
        },
        {
            "mesh" : 1,
            "name" : "buttonHand_oculus-touch-controller-right.005",
            "rotation" : [
                0.7071067690849304,
                0,
                0,
                0.7071067690849304
            ]
        },
        {
            "mesh" : 2,
            "name" : "stick_oculus-touch-controller-right.004",
            "rotation" : [
                0.7071067690849304,
                0,
                0,
                0.7071067690849304
            ]
        },
        {
            "mesh" : 3,
            "name" : "buttonB_oculus-touch-controller-right.003",
            "rotation" : [
                0.7071067690849304,
                0,
                0,
                0.7071067690849304
            ]
        },
        {
            "mesh" : 4,
            "name" : "buttonA_oculus-touch-controller-right.002",
            "rotation" : [
                0.7071067690849304,
                0,
                0,
                0.7071067690849304
            ]
        },
        {
            "mesh" : 5,
            "name" : "buttonHome_oculus-touch-controller-right.001",
            "rotation" : [
                0.7071067690849304,
                0,
                0,
                0.7071067690849304
            ]
        },
        {
            "mesh" : 6,
            "name" : "body_oculus-touch-controller-right",
            "rotation" : [
                0.7071067690849304,
                0,
                0,
                0.7071067690849304
            ]
        }
    ],
    "materials" : [
        {
            "doubleSided" : true,
            "emissiveFactor" : [
                0,
                0,
                0
            ],
            "name" : "buttonTrigger",
            "pbrMetallicRoughness" : {
                "baseColorFactor" : [
                    0.800000011920929,
                    0.800000011920929,
                    0.800000011920929,
                    1
                ],
                "metallicFactor" : 0,
                "roughnessFactor" : 0.5
            }
        },
        {
            "doubleSided" : true,
            "emissiveFactor" : [
                0,
                0,
                0
            ],
            "name" : "buttonHand",
            "pbrMetallicRoughness" : {
                "baseColorFactor" : [
                    0.800000011920929,
                    0.800000011920929,
                    0.800000011920929,
                    1
                ],
                "metallicFactor" : 0,
                "roughnessFactor" : 0.5
            }
        },
        {
            "doubleSided" : true,
            "emissiveFactor" : [
                0,
                0,
                0
            ],
            "name" : "stick",
            "pbrMetallicRoughness" : {
                "baseColorFactor" : [
                    0.800000011920929,
                    0.800000011920929,
                    0.800000011920929,
                    1
                ],
                "metallicFactor" : 0,
                "roughnessFactor" : 0.5
            }
        },
        {
            "doubleSided" : true,
            "emissiveFactor" : [
                0,
                0,
                0
            ],
            "name" : "buttonB",
            "pbrMetallicRoughness" : {
                "baseColorFactor" : [
                    0.800000011920929,
                    0.800000011920929,
                    0.800000011920929,
                    1
                ],
                "metallicFactor" : 0,
                "roughnessFactor" : 0.5
            }
        },
        {
            "doubleSided" : true,
            "emissiveFactor" : [
                0,
                0,
                0
            ],
            "name" : "buttonA",
            "pbrMetallicRoughness" : {
                "baseColorFactor" : [
                    0.800000011920929,
                    0.800000011920929,
                    0.800000011920929,
                    1
                ],
                "metallicFactor" : 0,
                "roughnessFactor" : 0.5
            }
        },
        {
            "doubleSided" : true,
            "emissiveFactor" : [
                0,
                0,
                0
            ],
            "name" : "buttonHome",
            "pbrMetallicRoughness" : {
                "baseColorFactor" : [
                    0.800000011920929,
                    0.800000011920929,
                    0.800000011920929,
                    1
                ],
                "metallicFactor" : 0,
                "roughnessFactor" : 0.5
            }
        },
        {
            "doubleSided" : true,
            "emissiveFactor" : [
                0,
                0,
                0
            ],
            "name" : "body",
            "pbrMetallicRoughness" : {
                "baseColorFactor" : [
                    0.800000011920929,
                    0.800000011920929,
                    0.800000011920929,
                    1
                ],
                "metallicFactor" : 0,
                "roughnessFactor" : 0.5
            }
        }
    ],
    "meshes" : [
        {
            "name" : "buttonTrigger_oculus-touch-controller-right.006",
            "primitives" : [
                {
                    "attributes" : {
                        "POSITION" : 0,
                        "NORMAL" : 1,
                        "TEXCOORD_0" : 2
                    },
                    "indices" : 3,
                    "material" : 0
                }
            ]
        },
        {
            "name" : "buttonHand_oculus-touch-controller-right.005",
            "primitives" : [
                {
                    "attributes" : {
                        "POSITION" : 4,
                        "NORMAL" : 5,
                        "TEXCOORD_0" : 6
                    },
                    "indices" : 7,
                    "material" : 1
                }
            ]
        },
        {
            "name" : "stick_oculus-touch-controller-right.004",
            "primitives" : [
                {
                    "attributes" : {
                        "POSITION" : 8,
                        "NORMAL" : 9,
                        "TEXCOORD_0" : 10
                    },
                    "indices" : 11,
                    "material" : 2
                }
            ]
        },
        {
            "name" : "buttonB_oculus-touch-controller-right.003",
            "primitives" : [
                {
                    "attributes" : {
                        "POSITION" : 12,
                        "NORMAL" : 13,
                        "TEXCOORD_0" : 14
                    },
                    "indices" : 15,
                    "material" : 3
                }
            ]
        },
        {
            "name" : "buttonA_oculus-touch-controller-right.002",
            "primitives" : [
                {
                    "attributes" : {
                        "POSITION" : 16,
                        "NORMAL" : 17,
                        "TEXCOORD_0" : 18
                    },
                    "indices" : 15,
                    "material" : 4
                }
            ]
        },
        {
            "name" : "buttonHome_oculus-touch-controller-right.001",
            "primitives" : [
                {
                    "attributes" : {
                        "POSITION" : 19,
                        "NORMAL" : 20,
                        "TEXCOORD_0" : 21
                    },
                    "indices" : 22,
                    "material" : 5
                }
            ]
        },
        {
            "name" : "body_oculus-touch-controller-right",
            "primitives" : [
                {
                    "attributes" : {
                        "POSITION" : 23,
                        "NORMAL" : 24,
                        "TEXCOORD_0" : 25
                    },
                    "indices" : 26,
                    "material" : 6
                }
            ]
        }
    ],
    "accessors" : [
        {
            "bufferView" : 0,
            "componentType" : 5126,
            "count" : 348,
            "max" : [
                0.006725000217556953,
                0.061404999345541,
                0.046112000942230225
            ],
            "min" : [
                -0.019267000257968903,
                0.03615900129079819,
                0.01989400014281273
            ],
            "type" : "VEC3"
        },
        {
            "bufferView" : 1,
            "componentType" : 5126,
            "count" : 348,
            "type" : "VEC3"
        },
        {
            "bufferView" : 2,
            "componentType" : 5126,
            "count" : 348,
            "type" : "VEC2"
        },
        {
            "bufferView" : 3,
            "componentType" : 5123,
            "count" : 1956,
            "type" : "SCALAR"
        },
        {
            "bufferView" : 4,
            "componentType" : 5126,
            "count" : 357,
            "max" : [
                -0.0008120000129565597,
                0.09984099864959717,
                0.0213019996881485
            ],
            "min" : [
                -0.013944000005722046,
                0.07577700167894363,
                -0.0033919999841600657
            ],
            "type" : "VEC3"
        },
        {
            "bufferView" : 5,
            "componentType" : 5126,
            "count" : 357,
            "type" : "VEC3"
        },
        {
            "bufferView" : 6,
            "componentType" : 5126,
            "count" : 357,
            "type" : "VEC2"
        },
        {
            "bufferView" : 7,
            "componentType" : 5123,
            "count" : 1950,
            "type" : "SCALAR"
        },
        {
            "bufferView" : 8,
            "componentType" : 5126,
            "count" : 1204,
            "max" : [
                0.010157999582588673,
                0.05786500126123428,
                0.01740100048482418
            ],
            "min" : [
                -0.0071829999797046185,
                0.037723999470472336,
                -0.002686999971047044
            ],
            "type" : "VEC3"
        },
        {
            "bufferView" : 9,
            "componentType" : 5126,
            "count" : 1204,
            "type" : "VEC3"
        },
        {
            "bufferView" : 10,
            "componentType" : 5126,
            "count" : 1204,
            "type" : "VEC2"
        },
        {
            "bufferView" : 11,
            "componentType" : 5123,
            "count" : 4800,
            "type" : "SCALAR"
        },
        {
            "bufferView" : 12,
            "componentType" : 5126,
            "count" : 353,
            "max" : [
                -0.012206999585032463,
                0.05363599956035614,
                0.014201999641954899
            ],
            "min" : [
                -0.022415999323129654,
                0.04337900131940842,
                0.004784000106155872
            ],
            "type" : "VEC3"
        },
        {
            "bufferView" : 13,
            "componentType" : 5126,
            "count" : 353,
            "type" : "VEC3"
        },
        {
            "bufferView" : 14,
            "componentType" : 5126,
            "count" : 353,
            "type" : "VEC2"
        },
        {
            "bufferView" : 15,
            "componentType" : 5123,
            "count" : 1440,
            "type" : "SCALAR"
        },
        {
            "bufferView" : 16,
            "componentType" : 5126,
            "count" : 353,
            "max" : [
                -0.005987999960780144,
                0.06411299854516983,
                0.0055959997698664665
            ],
            "min" : [
                -0.016196999698877335,
                0.05384400114417076,
                -0.00381199992261827
            ],
            "type" : "VEC3"
        },
        {
            "bufferView" : 17,
            "componentType" : 5126,
            "count" : 353,
            "type" : "VEC3"
        },
        {
            "bufferView" : 18,
            "componentType" : 5126,
            "count" : 353,
            "type" : "VEC2"
        },
        {
            "bufferView" : 19,
            "componentType" : 5126,
            "count" : 289,
            "max" : [
                0.008313000202178955,
                0.06856700032949448,
                0.00133200001437217
            ],
            "min" : [
                -0.0009410000056959689,
                0.05939599871635437,
                -0.007000999990850687
            ],
            "type" : "VEC3"
        },
        {
            "bufferView" : 20,
            "componentType" : 5126,
            "count" : 289,
            "type" : "VEC3"
        },
        {
            "bufferView" : 21,
            "componentType" : 5126,
            "count" : 289,
            "type" : "VEC2"
        },
        {
            "bufferView" : 22,
            "componentType" : 5123,
            "count" : 1056,
            "type" : "SCALAR"
        },
        {
            "bufferView" : 23,
            "componentType" : 5126,
            "count" : 5851,
            "max" : [
                0.06481499969959259,
                0.13857899606227875,
                0.08010700345039368
            ],
            "min" : [
                -0.044780001044273376,
                0.023972999304533005,
                -0.013945000246167183
            ],
            "type" : "VEC3"
        },
        {
            "bufferView" : 24,
            "componentType" : 5126,
            "count" : 5851,
            "type" : "VEC3"
        },
        {
            "bufferView" : 25,
            "componentType" : 5126,
            "count" : 5851,
            "type" : "VEC2"
        },
        {
            "bufferView" : 26,
            "componentType" : 5123,
            "count" : 26751,
            "type" : "SCALAR"
        }
    ],
    "bufferViews" : [
        {
            "buffer" : 0,
            "byteLength" : 4176,
            "byteOffset" : 0
        },
        {
            "buffer" : 0,
            "byteLength" : 4176,
            "byteOffset" : 4176
        },
        {
            "buffer" : 0,
            "byteLength" : 2784,
            "byteOffset" : 8352
        },
        {
            "buffer" : 0,
            "byteLength" : 3912,
            "byteOffset" : 11136
        },
        {
            "buffer" : 0,
            "byteLength" : 4284,
            "byteOffset" : 15048
        },
        {
            "buffer" : 0,
            "byteLength" : 4284,
            "byteOffset" : 19332
        },
        {
            "buffer" : 0,
            "byteLength" : 2856,
            "byteOffset" : 23616
        },
        {
            "buffer" : 0,
            "byteLength" : 3900,
            "byteOffset" : 26472
        },
        {
            "buffer" : 0,
            "byteLength" : 14448,
            "byteOffset" : 30372
        },
        {
            "buffer" : 0,
            "byteLength" : 14448,
            "byteOffset" : 44820
        },
        {
            "buffer" : 0,
            "byteLength" : 9632,
            "byteOffset" : 59268
        },
        {
            "buffer" : 0,
            "byteLength" : 9600,
            "byteOffset" : 68900
        },
        {
            "buffer" : 0,
            "byteLength" : 4236,
            "byteOffset" : 78500
        },
        {
            "buffer" : 0,
            "byteLength" : 4236,
            "byteOffset" : 82736
        },
        {
            "buffer" : 0,
            "byteLength" : 2824,
            "byteOffset" : 86972
        },
        {
            "buffer" : 0,
            "byteLength" : 2880,
            "byteOffset" : 89796
        },
        {
            "buffer" : 0,
            "byteLength" : 4236,
            "byteOffset" : 92676
        },
        {
            "buffer" : 0,
            "byteLength" : 4236,
            "byteOffset" : 96912
        },
        {
            "buffer" : 0,
            "byteLength" : 2824,
            "byteOffset" : 101148
        },
        {
            "buffer" : 0,
            "byteLength" : 3468,
            "byteOffset" : 103972
        },
        {
            "buffer" : 0,
            "byteLength" : 3468,
            "byteOffset" : 107440
        },
        {
            "buffer" : 0,
            "byteLength" : 2312,
            "byteOffset" : 110908
        },
        {
            "buffer" : 0,
            "byteLength" : 2112,
            "byteOffset" : 113220
        },
        {
            "buffer" : 0,
            "byteLength" : 70212,
            "byteOffset" : 115332
        },
        {
            "buffer" : 0,
            "byteLength" : 70212,
            "byteOffset" : 185544
        },
        {
            "buffer" : 0,
            "byteLength" : 46808,
            "byteOffset" : 255756
        },
        {
            "buffer" : 0,
            "byteLength" : 53502,
            "byteOffset" : 302564
        }
    ],
    "buffers" : [
        {
            "byteLength" : 356068,
            "uri" : "scene.bin"
        }
    ]
}
